<svg xmlns="http://www.w3.org/2000/svg" viewBox="0 0 1536 1024" role="img" width="1536" height="1024">
  <title>Government &amp; Politics — China's Political Institutions</title>
  <defs>
    <linearGradient id="bg" x1="0" y1="0" x2="1" y2="1">
      <stop offset="0%" stop-color="#e8dfc8" />
      <stop offset="100%" stop-color="#d4c9a8" />
    </linearGradient>
    <linearGradient id="mapgrad" x1="0" y1="0" x2="0" y2="1">
      <stop offset="0%" stop-color="#c8b98a" />
      <stop offset="100%" stop-color="#b8a870" />
    </linearGradient>
    <linearGradient id="redgrad" x1="0" y1="0" x2="1" y2="1">
      <stop offset="0%" stop-color="#9b1c1c" />
      <stop offset="100%" stop-color="#7a1515" />
    </linearGradient>
    <pattern id="hatch" width="6" height="6" patternUnits="userSpaceOnUse" patternTransform="rotate(45)">
      <line x1="0" y1="0" x2="0" y2="6" stroke="#a0906a" stroke-width="0.5" stroke-opacity="0.4" />
    </pattern>
    <filter id="shadow" x="-5%" y="-5%" width="110%" height="110%">
      <feDropShadow dx="2" dy="3" stdDeviation="4" flood-color="#6b5a3a" flood-opacity="0.3" />
    </filter>
  </defs>

  
  <rect width="1536" height="1024" fill="url(#bg)" />
  
  <rect width="1536" height="1024" fill="url(#hatch)" opacity="0.5" />

  
  <rect x="18" y="18" width="1500" height="988" fill="none" stroke="#8a7550" stroke-width="3" rx="2" />
  <rect x="28" y="28" width="1480" height="968" fill="none" stroke="#8a7550" stroke-width="1" rx="1" />

  
  
  <path d="M18,18 L70,18 L70,22 L22,22 L22,70 L18,70 Z" fill="#8a7550" />
  
  <path d="M1518,18 L1466,18 L1466,22 L1514,22 L1514,70 L1518,70 Z" fill="#8a7550" />
  
  <path d="M18,1006 L70,1006 L70,1002 L22,1002 L22,954 L18,954 Z" fill="#8a7550" />
  
  <path d="M1518,1006 L1466,1006 L1466,1002 L1514,1002 L1514,954 L1518,954 Z" fill="#8a7550" />

  
  <g transform="translate(1360,750)">
    <circle cx="0" cy="0" r="90" fill="#d4c9a8" stroke="#8a7550" stroke-width="1.5" />
    <circle cx="0" cy="0" r="60" fill="none" stroke="#8a7550" stroke-width="1" />
    <circle cx="0" cy="0" r="8" fill="#8a7550" />
    
    <polygon points="0,-90 -8,-30 0,-10 8,-30" fill="#8a7550" />
    <polygon points="0,-90 8,-30 0,-10 -8,-30" fill="#b8a870" />
    
    <polygon points="0,90 -8,30 0,10 8,30" fill="#b8a870" />
    <polygon points="0,90 8,30 0,10 -8,30" fill="#8a7550" />
    
    <polygon points="90,0 30,-8 10,0 30,8" fill="#b8a870" />
    <polygon points="90,0 30,8 10,0 30,-8" fill="#8a7550" />
    
    <polygon points="-90,0 -30,-8 -10,0 -30,8" fill="#8a7550" />
    <polygon points="-90,0 -30,8 -10,0 -30,-8" fill="#b8a870" />
    
    <line x1="0" y1="-90" x2="0" y2="-65" stroke="#8a7550" stroke-width="1" transform="rotate(45)" />
    <line x1="0" y1="-90" x2="0" y2="-65" stroke="#8a7550" stroke-width="1" transform="rotate(135)" />
    <line x1="0" y1="-90" x2="0" y2="-65" stroke="#8a7550" stroke-width="1" transform="rotate(225)" />
    <line x1="0" y1="-90" x2="0" y2="-65" stroke="#8a7550" stroke-width="1" transform="rotate(315)" />
    
    <text x="0" y="-96" text-anchor="middle" font-family="Georgia, serif" font-size="14" fill="#5a4a2a" font-weight="bold">N</text>
    <text x="0" y="110" text-anchor="middle" font-family="Georgia, serif" font-size="14" fill="#5a4a2a">S</text>
    <text x="100" y="5" text-anchor="middle" font-family="Georgia, serif" font-size="14" fill="#5a4a2a">E</text>
    <text x="-100" y="5" text-anchor="middle" font-family="Georgia, serif" font-size="14" fill="#5a4a2a">W</text>
  </g>

  
  
  <g filter="url(#shadow)">
    <path d="       M 680,200       L 720,190 L 780,195 L 840,185 L 900,175 L 960,180 L 1010,170 L 1060,175       L 1100,165 L 1140,180 L 1160,200 L 1170,225 L 1165,255 L 1150,280       L 1130,300 L 1120,330 L 1110,360 L 1100,390 L 1080,420 L 1060,450       L 1050,480 L 1060,510 L 1070,540 L 1060,570 L 1040,590 L 1010,600       L 980,610 L 950,620 L 930,640 L 910,660 L 890,670 L 860,665       L 830,650 L 810,635 L 790,620 L 770,605 L 750,590 L 730,575       L 710,560 L 700,540 L 695,515 L 700,490 L 710,465 L 700,440       L 685,415 L 670,395 L 660,370 L 655,345 L 660,320 L 665,295       L 670,265 L 672,235 Z     " fill="url(#mapgrad)" stroke="#8a7550" stroke-width="2" />
    
    <ellipse cx="1075" cy="590" rx="20" ry="35" fill="#c8b98a" stroke="#8a7550" stroke-width="1.5" transform="rotate(-20,1075,590)" />
  </g>

  
  <g stroke="#9a8860" stroke-width="0.8" stroke-dasharray="4,3" opacity="0.7">
    <line x1="760" y1="220" x2="780" y2="560" />
    <line x1="860" y1="200" x2="870" y2="600" />
    <line x1="960" y1="200" x2="960" y2="560" />
    <line x1="1050" y1="200" x2="1040" y2="500" />
    <line x1="680" y1="340" x2="1100" y2="320" />
    <line x1="680" y1="430" x2="1080" y2="420" />
    <line x1="690" y1="510" x2="1060" y2="500" />
  </g>

  
  <rect x="60" y="60" width="540" height="400" rx="4" fill="url(#redgrad)" filter="url(#shadow)" />
  
  <rect x="60" y="60" width="540" height="6" fill="#c41c1c" rx="2" />

  
  <polygon points="330,160 350,220 415,220 363,258 383,318 330,280 277,318 297,258 245,220 310,220" fill="#f5c518" filter="url(#shadow)" />
  
  <polygon points="420,115 428,138 452,138 433,152 440,175 420,161 400,175 407,152 388,138 412,138" fill="#f5c518" />
  <polygon points="455,160 463,183 487,183 468,197 475,220 455,206 435,220 442,197 423,183 447,183" fill="#f5c518" />
  <polygon points="450,220 458,243 482,243 463,257 470,280 450,266 430,280 437,257 418,243 442,243" fill="#f5c518" />
  <polygon points="415,270 423,293 447,293 428,307 435,330 415,316 395,330 402,307 383,293 407,293" fill="#f5c518" />

  
  <line x1="80" y1="390" x2="580" y2="390" stroke="#c41c1c" stroke-width="1.5" />
  <line x1="80" y1="400" x2="580" y2="400" stroke="#c41c1c" stroke-width="1" />

  
  <text x="330" y="460" text-anchor="middle" font-family="Georgia, 'Times New Roman', serif" font-size="52" font-weight="bold" fill="#3a2a0a" letter-spacing="1">Government &amp; Politics</text>
  
  <text x="330" y="510" text-anchor="middle" font-family="Georgia, 'Times New Roman', serif" font-size="24" fill="#5a4a2a" letter-spacing="2">PEOPLE'S REPUBLIC OF CHINA</text>

  
  <line x1="90" y1="525" x2="570" y2="525" stroke="#8a7550" stroke-width="1.5" />
  <line x1="120" y1="530" x2="540" y2="530" stroke="#8a7550" stroke-width="0.5" />

  
  <text x="330" y="560" text-anchor="middle" font-family="Georgia, 'Times New Roman', serif" font-size="18" fill="#6a5a3a" letter-spacing="3" font-style="italic">est. 1949</text>

  
  <g stroke="#8a7550" stroke-width="0.5" opacity="0.4">
    <line x1="630" y1="150" x2="630" y2="680" />
    <line x1="730" y1="150" x2="730" y2="680" />
    <line x1="830" y1="150" x2="830" y2="680" />
    <line x1="930" y1="150" x2="930" y2="680" />
    <line x1="1030" y1="150" x2="1030" y2="680" />
    <line x1="1130" y1="150" x2="1130" y2="680" />
    <line x1="630" y1="200" x2="1200" y2="200" />
    <line x1="630" y1="300" x2="1200" y2="300" />
    <line x1="630" y1="400" x2="1200" y2="400" />
    <line x1="630" y1="500" x2="1200" y2="500" />
    <line x1="630" y1="600" x2="1200" y2="600" />
  </g>

  
  <circle cx="930" cy="290" r="8" fill="#9b1c1c" stroke="#f5c518" stroke-width="2" />
  <circle cx="930" cy="290" r="16" fill="none" stroke="#9b1c1c" stroke-width="1.5" stroke-dasharray="3,3" />
  <text x="948" y="285" font-family="Georgia, serif" font-size="16" fill="#3a2a0a" font-weight="bold">Beijing</text>
  <text x="948" y="302" font-family="Georgia, serif" font-size="12" fill="#5a4a2a" font-style="italic">Capital</text>

  
  <rect x="60" y="900" width="1416" height="70" rx="2" fill="#8a7550" opacity="0.15" />
  <text x="768" y="943" text-anchor="middle" font-family="Georgia, 'Times New Roman', serif" font-size="19" fill="#5a3a1a" letter-spacing="4">
    POLITICAL INSTITUTIONS · COMMUNIST PARTY OF CHINA · DEMOCRATIC CENTRALISM
  </text>

  
  <g transform="translate(768,770)" opacity="0.25">
    <circle cx="0" cy="0" r="40" fill="none" stroke="#8a7550" stroke-width="1.5" />
    <circle cx="0" cy="0" r="28" fill="none" stroke="#8a7550" stroke-width="1" />
    
    <circle cx="0" cy="0" r="18" fill="#8a7550" />
    <circle cx="0" cy="0" r="10" fill="#d4c9a8" />
  </g>
</svg>