<svg xmlns="http://www.w3.org/2000/svg" viewBox="0 0 1536 1024" role="img" width="1536" height="1024">
  <title>The Great Leap Forward — Historical article banner depicting China, 1958–1962</title>

  <defs>
    
    <linearGradient id="parchment" x1="0" y1="0" x2="1" y2="1">
      <stop offset="0%" stop-color="#e8d9b5" />
      <stop offset="50%" stop-color="#dece9c" />
      <stop offset="100%" stop-color="#c9b87a" />
    </linearGradient>
    
    <radialGradient id="vignette" cx="50%" cy="50%" r="70%">
      <stop offset="60%" stop-color="transparent" />
      <stop offset="100%" stop-color="#6b1a1a" stop-opacity="0.45" />
    </radialGradient>
    
    <pattern id="hatch" x="0" y="0" width="6" height="6" patternUnits="userSpaceOnUse">
      <line x1="0" y1="6" x2="6" y2="0" stroke="#b09a60" stroke-width="0.4" stroke-opacity="0.35" />
    </pattern>
    
    <linearGradient id="chinaFill" x1="0" y1="0" x2="0" y2="1">
      <stop offset="0%" stop-color="#c0392b" stop-opacity="0.72" />
      <stop offset="100%" stop-color="#8b1a1a" stop-opacity="0.82" />
    </linearGradient>
    
    <linearGradient id="smokeGrad" x1="0" y1="1" x2="0" y2="0">
      <stop offset="0%" stop-color="#4a3f30" stop-opacity="0.9" />
      <stop offset="100%" stop-color="#7a6a50" stop-opacity="0" />
    </linearGradient>
    
    <radialGradient id="starGlow" cx="50%" cy="50%" r="50%">
      <stop offset="0%" stop-color="#f5d020" stop-opacity="1" />
      <stop offset="100%" stop-color="#c8a000" stop-opacity="0" />
    </radialGradient>
  </defs>

  
  <rect width="1536" height="1024" fill="url(#parchment)" />
  <rect width="1536" height="1024" fill="url(#hatch)" />

  
  <g stroke="#b09a60" stroke-width="0.6" stroke-opacity="0.4" fill="none">
    <line x1="0" y1="170" x2="1536" y2="170" />
    <line x1="0" y1="340" x2="1536" y2="340" />
    <line x1="0" y1="512" x2="1536" y2="512" />
    <line x1="0" y1="684" x2="1536" y2="684" />
    <line x1="0" y1="854" x2="1536" y2="854" />
    <line x1="192" y1="0" x2="192" y2="1024" />
    <line x1="384" y1="0" x2="384" y2="1024" />
    <line x1="576" y1="0" x2="576" y2="1024" />
    <line x1="768" y1="0" x2="768" y2="1024" />
    <line x1="960" y1="0" x2="960" y2="1024" />
    <line x1="1152" y1="0" x2="1152" y2="1024" />
    <line x1="1344" y1="0" x2="1344" y2="1024" />
  </g>

  
  <rect x="28" y="28" width="1480" height="968" fill="none" stroke="#8b6914" stroke-width="2.5" stroke-opacity="0.7" />
  <rect x="36" y="36" width="1464" height="952" fill="none" stroke="#8b6914" stroke-width="1" stroke-opacity="0.4" />

  
  
  <g transform="translate(520, 140) scale(1.15)">
    <path d="       M 320,60       L 370,45       L 420,50       L 460,40       L 500,55       L 520,80       L 540,70       L 570,85       L 560,110       L 580,130       L 560,150       L 570,180       L 550,200       L 530,195       L 520,220       L 490,240       L 480,270       L 460,290       L 450,320       L 430,340       L 420,380       L 400,400       L 380,410       L 360,430       L 340,460       L 310,480       L 280,490       L 260,510       L 240,530       L 210,540       L 190,560       L 170,555       L 150,570       L 130,555       L 110,560       L 90,545       L 70,550       L 50,535       L 40,510       L 20,500       L 10,475       L 20,450       L 10,420       L 30,390       L 20,360       L 40,330       L 60,310       L 50,280       L 70,260       L 90,250       L 100,220       L 120,200       L 140,195       L 150,170       L 170,155       L 180,130       L 200,115       L 220,120       L 240,105       L 270,90       L 295,70       Z     " fill="url(#chinaFill)" stroke="#6b1a1a" stroke-width="2.2" />
    
    <path d="       M 320,60       L 370,45 L 420,50 L 460,40 L 500,55 L 520,80 L 540,70 L 570,85 L 560,110 L 580,130       L 560,150 L 570,180 L 550,200 L 530,195 L 520,220 L 490,240 L 480,270 L 460,290       L 450,320 L 430,340 L 420,380 L 400,400 L 380,410 L 360,430 L 340,460 L 310,480       L 280,490 L 260,510 L 240,530 L 210,540 L 190,560 L 170,555 L 150,570 L 130,555       L 110,560 L 90,545 L 70,550 L 50,535 L 40,510 L 20,500 L 10,475 L 20,450 L 10,420       L 30,390 L 20,360 L 40,330 L 60,310 L 50,280 L 70,260 L 90,250 L 100,220 L 120,200       L 140,195 L 150,170 L 170,155 L 180,130 L 200,115 L 220,120 L 240,105 L 270,90 L 295,70 Z     " fill="url(#hatch)" opacity="0.5" />
  </g>

  
  
  <g transform="translate(1150, 300)">
    <rect x="0" y="100" width="44" height="200" fill="#4a3f30" rx="3" />
    <rect x="8" y="80" width="28" height="30" fill="#3a2f20" rx="2" />
    
    <ellipse cx="22" cy="65" rx="22" ry="18" fill="#7a6a50" opacity="0.55" />
    <ellipse cx="10" cy="42" rx="16" ry="14" fill="#7a6a50" opacity="0.4" />
    <ellipse cx="30" cy="20" rx="12" ry="11" fill="#7a6a50" opacity="0.3" />
    <ellipse cx="18" cy="0" rx="9" ry="8" fill="#7a6a50" opacity="0.2" />
  </g>
  <g transform="translate(1215, 340)">
    <rect x="0" y="80" width="36" height="180" fill="#4a3f30" rx="3" />
    <rect x="6" y="62" width="24" height="28" fill="#3a2f20" rx="2" />
    <ellipse cx="18" cy="50" rx="18" ry="15" fill="#7a6a50" opacity="0.5" />
    <ellipse cx="8" cy="30" rx="13" ry="12" fill="#7a6a50" opacity="0.35" />
    <ellipse cx="24" cy="10" rx="10" ry="9" fill="#7a6a50" opacity="0.25" />
  </g>
  <g transform="translate(1270, 360)">
    <rect x="0" y="60" width="50" height="220" fill="#4a3f30" rx="3" />
    <rect x="9" y="38" width="32" height="32" fill="#3a2f20" rx="2" />
    <ellipse cx="25" cy="24" rx="25" ry="20" fill="#7a6a50" opacity="0.6" />
    <ellipse cx="12" cy="0" rx="18" ry="15" fill="#7a6a50" opacity="0.4" />
  </g>
  
  <rect x="1140" y="500" width="220" height="80" fill="#4a3f30" rx="2" />
  <rect x="1148" y="510" width="30" height="25" fill="#5a4d38" rx="1" />
  <rect x="1188" y="510" width="30" height="25" fill="#5a4d38" rx="1" />
  <rect x="1228" y="510" width="30" height="25" fill="#5a4d38" rx="1" />
  <rect x="1268" y="510" width="30" height="25" fill="#5a4d38" rx="1" />
  <rect x="1308" y="510" width="30" height="25" fill="#5a4d38" rx="1" />

  
  <g stroke="#8b6914" stroke-width="1.8" fill="none" opacity="0.7">
    
    <line x1="80" y1="750" x2="80" y2="550" />
    <line x1="80" y1="680" x2="65" y2="660" />
    <line x1="80" y1="650" x2="95" y2="630" />
    <line x1="80" y1="610" x2="68" y2="590" />
    
    <ellipse cx="80" cy="540" rx="7" ry="18" fill="#8b6914" stroke="none" />
    <line x1="73" y1="535" x2="62" y2="520" />
    <line x1="80" y1="530" x2="68" y2="515" />
    <line x1="87" y1="535" x2="98" y2="520" />
    <line x1="80" y1="525" x2="92" y2="510" />
  </g>
  <g stroke="#8b6914" stroke-width="1.8" fill="none" opacity="0.7">
    <line x1="110" y1="760" x2="115" y2="545" />
    <line x1="112" y1="690" x2="97" y2="668" />
    <line x1="113" y1="655" x2="128" y2="638" />
    <line x1="114" y1="618" x2="102" y2="598" />
    <ellipse cx="115" cy="535" rx="7" ry="18" fill="#8b6914" stroke="none" />
    <line x1="108" y1="530" x2="97" y2="515" />
    <line x1="115" y1="525" x2="103" y2="510" />
    <line x1="122" y1="530" x2="133" y2="515" />
  </g>
  <g stroke="#8b6914" stroke-width="1.8" fill="none" opacity="0.65">
    <line x1="55" y1="760" x2="52" y2="560" />
    <line x1="54" y1="700" x2="40" y2="680" />
    <line x1="53" y1="660" x2="67" y2="645" />
    <ellipse cx="52" cy="550" rx="6" ry="16" fill="#8b6914" stroke="none" />
    <line x1="46" y1="545" x2="36" y2="530" />
    <line x1="58" y1="545" x2="68" y2="530" />
  </g>

  
  <g stroke="#8b6914" stroke-width="1.8" fill="none" opacity="0.7" transform="translate(1430,0)">
    <line x1="50" y1="760" x2="50" y2="550" />
    <line x1="50" y1="680" x2="35" y2="660" />
    <line x1="50" y1="650" x2="65" y2="630" />
    <line x1="50" y1="610" x2="38" y2="590" />
    <ellipse cx="50" cy="540" rx="7" ry="18" fill="#8b6914" stroke="none" />
    <line x1="43" y1="535" x2="32" y2="520" />
    <line x1="57" y1="535" x2="68" y2="520" />
  </g>

  
  <g transform="translate(620, 200)">
    <circle cx="0" cy="0" r="42" fill="#f5d020" opacity="0.18" />
    <polygon points="0,-38 9,-12 36,-12 15,5 24,30 0,15 -24,30 -15,5 -36,-12 -9,-12" fill="#c8a000" stroke="#8b6914" stroke-width="1.2" opacity="0.85" />
  </g>

  
  <g transform="translate(1430, 860)">
    <circle cx="0" cy="0" r="55" fill="none" stroke="#8b6914" stroke-width="1.2" opacity="0.5" />
    <circle cx="0" cy="0" r="42" fill="none" stroke="#8b6914" stroke-width="0.7" opacity="0.4" />
    
    <polygon points="0,-40 6,-20 0,-28 -6,-20" fill="#6b1a1a" opacity="0.8" />
    
    <polygon points="0,40 6,20 0,28 -6,20" fill="#4a3f30" opacity="0.6" />
    
    <polygon points="40,0 20,6 28,0 20,-6" fill="#4a3f30" opacity="0.6" />
    
    <polygon points="-40,0 -20,6 -28,0 -20,-6" fill="#4a3f30" opacity="0.6" />
    <circle cx="0" cy="0" r="5" fill="#8b6914" opacity="0.8" />
    
    <line x1="0" y1="-42" x2="0" y2="-55" stroke="#8b6914" stroke-width="1.2" opacity="0.5" />
    <line x1="0" y1="42" x2="0" y2="55" stroke="#8b6914" stroke-width="1.2" opacity="0.5" />
    <line x1="42" y1="0" x2="55" y2="0" stroke="#8b6914" stroke-width="1.2" opacity="0.5" />
    <line x1="-42" y1="0" x2="-55" y2="0" stroke="#8b6914" stroke-width="1.2" opacity="0.5" />
    <text x="0" y="-62" text-anchor="middle" font-size="14" fill="#6b1a1a" font-family="Georgia,serif" font-weight="bold" opacity="0.8">N</text>
  </g>

  
  <rect width="1536" height="1024" fill="url(#vignette)" />

  
  <rect x="0" y="600" width="1536" height="424" fill="#2a1a0a" opacity="0.62" />

  
  <line x1="80" y1="620" x2="1456" y2="620" stroke="#c8a000" stroke-width="1.5" opacity="0.6" />

  
  <text x="92" y="668" font-family="Georgia, 'Times New Roman', serif" font-size="22" font-style="italic" letter-spacing="4" fill="#c8a000" opacity="0.9">HISTORY · 1958–1962</text>

  
  <text x="92" y="760" font-family="Georgia, 'Times New Roman', serif" font-size="104" font-weight="bold" letter-spacing="2" fill="#f0e0b0">The Great</text>
  <text x="92" y="870" font-family="Georgia, 'Times New Roman', serif" font-size="104" font-weight="bold" letter-spacing="2" fill="#f0e0b0">Leap Forward</text>

  
  <text x="92" y="930" font-family="Georgia, 'Times New Roman', serif" font-size="26" fill="#c8b080" opacity="0.85" letter-spacing="1">Mao Zedong's campaign to transform China, 1958–1962 · Est. 30 million lives lost</text>

  
  <line x1="80" y1="960" x2="1456" y2="960" stroke="#c8a000" stroke-width="1" opacity="0.4" />

  
  <g transform="translate(1100, 930)" opacity="0.65">
    <rect x="0" y="0" width="60" height="8" fill="#8b6914" />
    <rect x="60" y="0" width="60" height="8" fill="#dece9c" />
    <rect x="120" y="0" width="60" height="8" fill="#8b6914" />
    <text x="0" y="-4" font-family="Georgia,serif" font-size="11" fill="#c8a000">0</text>
    <text x="55" y="-4" font-family="Georgia,serif" font-size="11" fill="#c8a000">500</text>
    <text x="115" y="-4" font-family="Georgia,serif" font-size="11" fill="#c8a000">1000 km</text>
  </g>

</svg>