<svg xmlns="http://www.w3.org/2000/svg" viewBox="0 0 1536 1024" role="img" width="1536" height="1024">
  <title>The Yellow River – Geographic Atlas Banner</title>
  <defs>
    <linearGradient id="sky" x1="0" y1="0" x2="0" y2="1">
      <stop offset="0%" stop-color="#e8dfc8" />
      <stop offset="100%" stop-color="#d4c9a8" />
    </linearGradient>
    <linearGradient id="riverGrad" x1="0" y1="0" x2="1" y2="0">
      <stop offset="0%" stop-color="#c8a84b" />
      <stop offset="40%" stop-color="#d4a832" />
      <stop offset="100%" stop-color="#b8960e" />
    </linearGradient>
    <linearGradient id="plateauGrad" x1="0" y1="0" x2="0" y2="1">
      <stop offset="0%" stop-color="#c4a882" />
      <stop offset="100%" stop-color="#a8906a" />
    </linearGradient>
    <linearGradient id="seaGrad" x1="0" y1="0" x2="1" y2="0">
      <stop offset="0%" stop-color="#8fb8c8" />
      <stop offset="100%" stop-color="#6a9ab0" />
    </linearGradient>
    <filter id="engrave" x="-5%" y="-5%" width="110%" height="110%">
      <feTurbulence type="fractalNoise" baseFrequency="0.9" numOctaves="4" result="noise" />
      <feDisplacementMap in="SourceGraphic" in2="noise" scale="1.5" result="displaced" />
      <feComposite in="displaced" in2="SourceGraphic" operator="in" />
    </filter>
    <pattern id="hatch" patternUnits="userSpaceOnUse" width="6" height="6" patternTransform="rotate(45)">
      <line x1="0" y1="0" x2="0" y2="6" stroke="#9a8060" stroke-width="0.4" opacity="0.3" />
    </pattern>
    <pattern id="crosshatch" patternUnits="userSpaceOnUse" width="8" height="8">
      <line x1="0" y1="0" x2="8" y2="8" stroke="#7a6040" stroke-width="0.5" opacity="0.2" />
      <line x1="8" y1="0" x2="0" y2="8" stroke="#7a6040" stroke-width="0.5" opacity="0.2" />
    </pattern>
  </defs>

  
  <rect width="1536" height="1024" fill="url(#sky)" />
  <rect width="1536" height="1024" fill="url(#hatch)" />

  
  <rect x="20" y="20" width="1496" height="984" fill="none" stroke="#8a7050" stroke-width="3" />
  <rect x="28" y="28" width="1480" height="968" fill="none" stroke="#8a7050" stroke-width="1" />

  
  
  <path d="     M 380,120     L 520,90 L 680,80 L 820,100 L 920,85 L 1060,110     L 1150,140 L 1200,170 L 1220,220 L 1190,270     L 1240,300 L 1260,360 L 1230,420 L 1180,450     L 1160,510 L 1120,560 L 1080,600 L 1060,660     L 1000,700 L 940,730 L 880,760 L 820,780     L 760,820 L 700,840 L 640,830 L 580,800     L 520,770 L 470,730 L 430,700 L 390,660     L 350,620 L 320,570 L 300,510 L 290,450     L 270,390 L 260,330 L 280,270 L 310,210     Z   " fill="#c8b896" stroke="#8a7050" stroke-width="2" />
  <path d="     M 380,120     L 520,90 L 680,80 L 820,100 L 920,85 L 1060,110     L 1150,140 L 1200,170 L 1220,220 L 1190,270     L 1240,300 L 1260,360 L 1230,420 L 1180,450     L 1160,510 L 1120,560 L 1080,600 L 1060,660     L 1000,700 L 940,730 L 880,760 L 820,780     L 760,820 L 700,840 L 640,830 L 580,800     L 520,770 L 470,730 L 430,700 L 390,660     L 350,620 L 320,570 L 300,510 L 290,450     L 270,390 L 260,330 L 280,270 L 310,210     Z   " fill="url(#crosshatch)" />

  
  <path d="     M 310,210 L 380,120 L 520,90 L 580,130 L 560,200     L 520,260 L 480,300 L 440,320 L 390,310 L 350,280     L 310,250 Z   " fill="#b8a07a" stroke="#8a7050" stroke-width="1.2" opacity="0.85" />
  <path d="     M 310,210 L 380,120 L 520,90 L 580,130 L 560,200     L 520,260 L 480,300 L 440,320 L 390,310 L 350,280     L 310,250 Z   " fill="url(#plateauGrad)" opacity="0.5" />

  
  <path d="     M 600,300 L 680,270 L 760,260 L 820,280 L 840,340     L 820,400 L 760,430 L 690,420 L 630,390 L 600,350 Z   " fill="#c09860" stroke="#8a7050" stroke-width="1" opacity="0.7" />

  
  <path d="     M 1060,300 L 1150,280 L 1260,360 L 1230,420     L 1180,450 L 1100,420 L 1060,380 Z   " fill="url(#seaGrad)" stroke="#5a8aa0" stroke-width="1.5" opacity="0.8" />
  <text x="1155" y="390" font-family="Georgia, serif" font-size="18" fill="#3a6a80" text-anchor="middle" font-style="italic" opacity="0.9">Bohai Sea</text>

  
  
  <path d="     M 430,175     C 460,180 490,200 510,230     C 530,260 520,290 510,310     C 495,340 480,350 500,370     C 520,390 560,380 590,370     C 630,355 670,330 710,320     C 750,310 790,315 820,330     C 860,350 880,380 870,420     C 858,460 820,480 790,500     C 760,520 730,530 720,560     C 710,590 730,620 760,640     C 790,660 840,670 880,680     C 930,692 980,695 1020,700     C 1060,705 1100,700 1130,680     C 1160,660 1175,630 1170,600     C 1165,570 1145,548 1150,520     C 1155,495 1175,480 1190,460     C 1200,445 1205,430 1195,415     C 1180,395 1150,392 1130,400     C 1105,410 1085,430 1065,430     C 1045,430 1030,415 1040,395     C 1048,378 1070,368 1080,350     C 1092,330 1085,305 1075,290   " fill="none" stroke="url(#riverGrad)" stroke-width="10" stroke-linecap="round" stroke-linejoin="round" />
  
  <path d="     M 430,175     C 460,180 490,200 510,230     C 530,260 520,290 510,310     C 495,340 480,350 500,370     C 520,390 560,380 590,370     C 630,355 670,330 710,320     C 750,310 790,315 820,330     C 860,350 880,380 870,420     C 858,460 820,480 790,500     C 760,520 730,530 720,560     C 710,590 730,620 760,640     C 790,660 840,670 880,680     C 930,692 980,695 1020,700     C 1060,705 1100,700 1130,680     C 1160,660 1175,630 1170,600     C 1165,570 1145,548 1150,520     C 1155,495 1175,480 1190,460     C 1200,445 1205,430 1195,415     C 1180,395 1150,392 1130,400     C 1105,410 1085,430 1065,430     C 1045,430 1030,415 1040,395     C 1048,378 1070,368 1080,350     C 1092,330 1085,305 1075,290   " fill="none" stroke="#f0d060" stroke-width="3" stroke-linecap="round" stroke-linejoin="round" opacity="0.5" />

  
  <circle cx="430" cy="175" r="8" fill="#c8a832" stroke="#7a6010" stroke-width="2" />
  <circle cx="430" cy="175" r="3" fill="#7a6010" />

  
  <circle cx="1075" cy="290" r="8" fill="#4a88a8" stroke="#2a5870" stroke-width="2" />

  
  <g opacity="0.7" stroke="#7a6040" stroke-width="1.2" fill="#b09070">
    <polygon points="390,155 405,125 420,155" />
    <polygon points="410,165 428,132 446,165" />
    <polygon points="350,170 365,148 380,170" />
  </g>

  
  <g transform="translate(1380, 200)">
    
    <circle cx="0" cy="0" r="72" fill="#d4c9a8" stroke="#8a7050" stroke-width="2" />
    <circle cx="0" cy="0" r="68" fill="none" stroke="#8a7050" stroke-width="0.5" />
    
    <polygon points="0,-68 -8,-20 0,-30 8,-20" fill="#8a5030" />
    <polygon points="0,68 -8,20 0,30 8,20" fill="#8a7050" />
    <polygon points="-68,0 -20,-8 -30,0 -20,8" fill="#8a7050" />
    <polygon points="68,0 20,-8 30,0 20,8" fill="#8a7050" />
    
    <polygon points="0,-68 -6,-14 0,-24 6,-14" fill="#8a7050" transform="rotate(45)" />
    <polygon points="0,-68 -6,-14 0,-24 6,-14" fill="#8a7050" transform="rotate(135)" />
    <polygon points="0,-68 -6,-14 0,-24 6,-14" fill="#8a7050" transform="rotate(225)" />
    <polygon points="0,-68 -6,-14 0,-24 6,-14" fill="#8a7050" transform="rotate(315)" />
    
    <circle cx="0" cy="0" r="10" fill="#c8a832" stroke="#8a5030" stroke-width="1.5" />
    <circle cx="0" cy="0" r="4" fill="#8a5030" />
    
    <text x="0" y="-76" text-anchor="middle" font-family="Georgia, serif" font-size="16" font-weight="bold" fill="#5a3020">N</text>
    <text x="0" y="92" text-anchor="middle" font-family="Georgia, serif" font-size="14" fill="#5a3020">S</text>
    <text x="-82" y="5" text-anchor="middle" font-family="Georgia, serif" font-size="14" fill="#5a3020">W</text>
    <text x="82" y="5" text-anchor="middle" font-family="Georgia, serif" font-size="14" fill="#5a3020">E</text>
  </g>

  
  <g transform="translate(1300, 870)">
    <rect x="0" y="0" width="160" height="10" fill="#8a7050" />
    <rect x="0" y="0" width="80" height="10" fill="#d4c9a8" />
    <rect x="0" y="0" width="160" height="10" fill="none" stroke="#8a7050" stroke-width="1" />
    <line x1="0" y1="-4" x2="0" y2="14" stroke="#8a7050" stroke-width="1.5" />
    <line x1="80" y1="-4" x2="80" y2="14" stroke="#8a7050" stroke-width="1.5" />
    <line x1="160" y1="-4" x2="160" y2="14" stroke="#8a7050" stroke-width="1.5" />
    <text x="0" y="-8" text-anchor="middle" font-family="Georgia, serif" font-size="13" fill="#5a4030">0</text>
    <text x="80" y="-8" text-anchor="middle" font-family="Georgia, serif" font-size="13" fill="#5a4030">500</text>
    <text x="160" y="-8" text-anchor="middle" font-family="Georgia, serif" font-size="13" fill="#5a4030">1000 km</text>
  </g>

  
  <g opacity="0.4" fill="#c8a832">
    <circle cx="620" cy="368" r="3" />
    <circle cx="700" cy="324" r="2.5" />
    <circle cx="760" cy="315" r="3" />
    <circle cx="840" cy="350" r="2.5" />
    <circle cx="870" cy="415" r="3" />
    <circle cx="810" cy="495" r="2.5" />
    <circle cx="740" cy="558" r="3" />
    <circle cx="780" cy="642" r="2.5" />
    <circle cx="900" cy="684" r="3" />
    <circle cx="1000" cy="698" r="2.5" />
  </g>

  
  <rect x="50" y="600" width="580" height="380" rx="4" fill="#3a2a1a" opacity="0.82" />
  <rect x="50" y="600" width="580" height="380" rx="4" fill="none" stroke="#8a7050" stroke-width="2" />

  
  <text x="608" y="660" font-family="serif" font-size="72" fill="#c8a832" opacity="0.15" text-anchor="end">黄河</text>

  
  <text x="90" y="668" font-family="Georgia, 'Times New Roman', serif" font-size="72" font-weight="bold" fill="#f0d878" letter-spacing="2">The Yellow</text>
  <text x="90" y="748" font-family="Georgia, 'Times New Roman', serif" font-size="72" font-weight="bold" fill="#f0d878" letter-spacing="2">River</text>

  
  <text x="90" y="792" font-family="Georgia, serif" font-size="26" fill="#c8a832" letter-spacing="4">HUANG HE  ·  黄河</text>

  
  <line x1="90" y1="808" x2="590" y2="808" stroke="#8a7050" stroke-width="1.5" />

  
  <text x="90" y="836" font-family="Georgia, serif" font-size="19" fill="#d4c9a8">China's second-longest river  ·  ~5,464 km</text>
  <text x="90" y="862" font-family="Georgia, serif" font-size="19" fill="#d4c9a8">Drains 752,000 km²  ·  Empties into the Bohai Sea</text>
  <text x="90" y="888" font-family="Georgia, serif" font-size="19" fill="#d4c9a8">Carries 1.6 billion tonnes of loess silt per year</text>

  
  <line x1="90" y1="902" x2="590" y2="902" stroke="#8a7050" stroke-width="0.8" />
  <text x="90" y="928" font-family="Georgia, serif" font-size="17" fill="#a89878" font-style="italic">"China's Sorrow"  ·  Cradle of Chinese Civilization</text>
  <text x="90" y="952" font-family="Georgia, serif" font-size="15" fill="#887858">Geography  ·  History  ·  Culture</text>

  
  <text x="360" y="165" font-family="Georgia, serif" font-size="15" fill="#5a4030" font-style="italic" text-anchor="middle">Qinghai Plateau</text>
  <text x="360" y="182" font-family="Georgia, serif" font-size="13" fill="#5a4030" text-anchor="middle">~4,500m elevation</text>

  
  <line x1="438" y1="170" x2="480" y2="140" stroke="#8a6030" stroke-width="1" />
  <text x="484" y="135" font-family="Georgia, serif" font-size="14" fill="#5a4030">Source: Bayankala Mts.</text>

  
  <text x="720" y="360" font-family="Georgia, serif" font-size="15" fill="#5a4030" text-anchor="middle" font-style="italic">Loess Plateau</text>

  
  <text x="870" y="545" font-family="Georgia, serif" font-size="18" fill="#7a6010" font-style="italic" transform="rotate(-15,870,545)">Huang He</text>

  
  <g fill="#8a5030" stroke="#5a3010" stroke-width="0.8">
    <circle cx="510" cy="240" r="4" />
    <circle cx="590" cy="370" r="4" />
    <circle cx="710" cy="322" r="4" />
    <circle cx="800" cy="330" r="4" />
    <circle cx="790" cy="500" r="4" />
    <circle cx="760" cy="635" r="4" />
    <circle cx="1000" cy="698" r="4" />
    <circle cx="1075" cy="292" r="4" />
  </g>

  
  <text x="505" y="230" font-family="Georgia, serif" font-size="12" fill="#5a4030" text-anchor="middle">Qinghai</text>
  <text x="590" y="360" font-family="Georgia, serif" font-size="12" fill="#5a4030" text-anchor="middle">Gansu</text>
  <text x="840" y="320" font-family="Georgia, serif" font-size="12" fill="#5a4030">Inner Mongolia</text>
  <text x="763" y="628" font-family="Georgia, serif" font-size="12" fill="#5a4030">Shaanxi</text>
  <text x="1005" y="690" font-family="Georgia, serif" font-size="12" fill="#5a4030">Henan</text>
  <text x="1085" y="283" font-family="Georgia, serif" font-size="12" fill="#3a6a80">Shandong</text>

  
  <rect x="20" y="20" width="1496" height="36" fill="#8a7050" opacity="0.3" />
  <text x="768" y="45" font-family="Georgia, serif" font-size="16" fill="#5a4030" text-anchor="middle" letter-spacing="6">ATLAS OF CHINA  ·  GEOGRAPHIC SURVEY</text>

  
  <rect x="20" y="968" width="1496" height="36" fill="#8a7050" opacity="0.3" />
  <text x="768" y="990" font-family="Georgia, serif" font-size="14" fill="#5a4030" text-anchor="middle" letter-spacing="3">THE YELLOW RIVER BASIN  ·  黄河流域</text>

</svg>