<svg xmlns="http://www.w3.org/2000/svg" viewBox="0 0 1536 1024" role="img" width="1536" height="1024">
  <title>Zhou Enlai — Premier of the People's Republic of China, Diplomat and Statesman</title>

  <defs>
    
    <linearGradient id="parchment" x1="0" y1="0" x2="1" y2="1">
      <stop offset="0%" stop-color="#e8dfc8" />
      <stop offset="50%" stop-color="#ddd0b0" />
      <stop offset="100%" stop-color="#c8b88a" />
    </linearGradient>
    
    <radialGradient id="vignette" cx="50%" cy="50%" r="75%">
      <stop offset="0%" stop-color="#00000000" />
      <stop offset="100%" stop-color="#00000055" />
    </radialGradient>
    
    <linearGradient id="panelGrad" x1="0" y1="0" x2="0" y2="1">
      <stop offset="0%" stop-color="#3a2e1e" stop-opacity="0.88" />
      <stop offset="100%" stop-color="#2a1e0e" stop-opacity="0.95" />
    </linearGradient>
    
    <linearGradient id="redAccent" x1="0" y1="0" x2="1" y2="0">
      <stop offset="0%" stop-color="#8b1a1a" />
      <stop offset="100%" stop-color="#c0392b" />
    </linearGradient>
    
    <linearGradient id="landFill" x1="0" y1="0" x2="0" y2="1">
      <stop offset="0%" stop-color="#b5a882" />
      <stop offset="100%" stop-color="#9e9070" />
    </linearGradient>
    
    <linearGradient id="chinaFill" x1="0" y1="0" x2="1" y2="1">
      <stop offset="0%" stop-color="#a0522d" />
      <stop offset="100%" stop-color="#8b3a1a" />
    </linearGradient>
    
    <linearGradient id="ocean" x1="0" y1="0" x2="1" y2="1">
      <stop offset="0%" stop-color="#c8d8e0" />
      <stop offset="100%" stop-color="#b0c4cc" />
    </linearGradient>
  </defs>

  
  <rect width="1536" height="1024" fill="url(#ocean)" />

  
  <rect width="1536" height="1024" fill="url(#parchment)" opacity="0.82" />

  
  <g stroke="#9e8e6a" stroke-width="0.6" opacity="0.45" fill="none">
    
    <line x1="0" y1="128" x2="1536" y2="128" />
    <line x1="0" y1="256" x2="1536" y2="256" />
    <line x1="0" y1="384" x2="1536" y2="384" />
    <line x1="0" y1="512" x2="1536" y2="512" />
    <line x1="0" y1="640" x2="1536" y2="640" />
    <line x1="0" y1="768" x2="1536" y2="768" />
    <line x1="0" y1="896" x2="1536" y2="896" />
    
    <line x1="192" y1="0" x2="192" y2="1024" />
    <line x1="384" y1="0" x2="384" y2="1024" />
    <line x1="576" y1="0" x2="576" y2="1024" />
    <line x1="768" y1="0" x2="768" y2="1024" />
    <line x1="960" y1="0" x2="960" y2="1024" />
    <line x1="1152" y1="0" x2="1152" y2="1024" />
    <line x1="1344" y1="0" x2="1344" y2="1024" />
  </g>

  
  <g stroke="#9e8e6a" stroke-width="0.5" opacity="0.3" fill="none">
    <path d="M768,0 Q700,512 768,1024" />
    <path d="M768,0 Q840,512 768,1024" />
  </g>

  
  
  <path d="M620,180 L640,165 L660,155 L690,160 L710,155 L720,165 L730,175 L720,190 L710,200 L700,215 L685,225 L670,230 L655,240 L645,255 L635,265 L625,255 L615,240 L610,225 L615,210 L620,195 Z" fill="url(#landFill)" stroke="#7a6a4a" stroke-width="1.2" opacity="0.8" />
  
  <path d="M660,155 L665,130 L670,110 L680,125 L690,140 L695,155 L690,160 L670,160Z" fill="url(#landFill)" stroke="#7a6a4a" stroke-width="1" opacity="0.7" />

  
  <path d="M620,290 L640,285 L660,290 L675,305 L680,325 L685,355 L680,385 L670,415 L655,445 L640,465 L628,475 L615,465 L605,445 L598,415 L595,385 L598,355 L605,325 L612,305 Z" fill="url(#landFill)" stroke="#7a6a4a" stroke-width="1.2" opacity="0.8" />

  
  <path d="M700,240 L720,235 L745,245 L760,260 L765,285 L755,310 L740,325 L720,315 L705,295 L698,270 Z" fill="url(#landFill)" stroke="#7a6a4a" stroke-width="1" opacity="0.75" />

  
  <path d="M790,270 L815,260 L835,265 L845,285 L840,315 L825,345 L805,365 L790,355 L778,330 L775,305 L780,285 Z" fill="url(#landFill)" stroke="#7a6a4a" stroke-width="1" opacity="0.75" />

  
  <path d="M920,310 L940,295 L960,300 L970,320 L965,345 L950,360 L935,355 L920,340 L915,320 Z" fill="url(#landFill)" stroke="#7a6a4a" stroke-width="1" opacity="0.7" />

  
  <path d="M1020,540 L1060,520 L1110,520 L1150,535 L1170,560 L1165,595 L1145,620 L1115,640 L1080,645 L1045,630 L1020,605 L1008,575 L1012,550 Z" fill="url(#landFill)" stroke="#7a6a4a" stroke-width="1.2" opacity="0.75" />

  
  <path d="M200,140 L245,120 L295,115 L340,125 L370,150 L385,185 L375,225 L355,260 L330,285 L305,300 L275,305 L245,295 L220,275 L200,250 L185,220 L182,190 L190,165 Z" fill="url(#landFill)" stroke="#7a6a4a" stroke-width="1.2" opacity="0.8" />
  
  <path d="M275,305 L300,300 L315,315 L310,340 L295,355 L278,350 L268,335 L270,318 Z" fill="url(#landFill)" stroke="#7a6a4a" stroke-width="1" opacity="0.7" />

  
  <path d="M295,395 L325,375 L355,370 L380,385 L395,415 L395,455 L385,495 L368,530 L345,555 L318,565 L295,555 L278,525 L270,490 L272,455 L278,420 Z" fill="url(#landFill)" stroke="#7a6a4a" stroke-width="1.2" opacity="0.8" />

  
  <path d="M700,100 L760,80 L840,70 L920,75 L990,85 L1050,95 L1095,110 L1120,130 L1110,155 L1080,165 L1040,170 L990,168 L940,165 L890,165 L840,162 L790,160 L750,158 L720,155 L695,145 L690,125 Z" fill="url(#landFill)" stroke="#7a6a4a" stroke-width="1.2" opacity="0.75" />

  
  <path d="M870,175 L910,165 L950,162 L985,168 L1010,185 L1020,210 L1025,240 L1020,270 L1008,295 L990,310 L965,320 L940,315 L915,305 L895,290 L875,270 L862,245 L858,218 L862,195 Z" fill="url(#chinaFill)" stroke="#5a1a00" stroke-width="2" opacity="0.9" />

  
  <g stroke="#6b2a00" stroke-width="0.8" opacity="0.4" fill="none">
    <line x1="870" y1="220" x2="1020" y2="220" />
    <line x1="865" y1="250" x2="1020" y2="250" />
    <line x1="870" y1="280" x2="1010" y2="280" />
    <path d="M910,165 L905,320" />
    <path d="M950,162 L945,315" />
  </g>

  
  <circle cx="968" cy="192" r="7" fill="#c0392b" stroke="#fff" stroke-width="2" opacity="0.95" />
  <circle cx="968" cy="192" r="14" fill="none" stroke="#c0392b" stroke-width="1.5" opacity="0.6" />

  
  <g fill="none" stroke="#8b1a1a" stroke-width="1.8" stroke-dasharray="8,5" opacity="0.65">
    
    <path d="M968,192 Q760,50 280,185" />
    
    <path d="M968,192 Q860,120 780,115" />
    
    <path d="M968,192 Q830,150 680,200" />
    
    <path d="M968,192 Q950,260 940,310" />
  </g>

  
  <circle cx="280" cy="185" r="5" fill="#8b1a1a" opacity="0.7" />
  <circle cx="780" cy="115" r="5" fill="#8b1a1a" opacity="0.7" />
  <circle cx="680" cy="200" r="5" fill="#8b1a1a" opacity="0.7" />

  
  <rect width="1536" height="1024" fill="url(#vignette)" />

  
  <rect x="18" y="18" width="1500" height="988" fill="none" stroke="#6a5030" stroke-width="3" opacity="0.6" />
  <rect x="28" y="28" width="1480" height="968" fill="none" stroke="#6a5030" stroke-width="1" opacity="0.4" />

  
  <g stroke="#6a5030" stroke-width="1.8" fill="none" opacity="0.7">
    
    <path d="M18,68 L18,18 L68,18" />
    <path d="M28,78 L28,28 L78,28" />
    
    <path d="M1518,68 L1518,18 L1468,18" />
    <path d="M1508,78 L1508,28 L1458,28" />
    
    <path d="M18,956 L18,1006 L68,1006" />
    <path d="M28,946 L28,996 L78,996" />
    
    <path d="M1518,956 L1518,1006 L1468,1006" />
    <path d="M1508,946 L1508,996 L1458,996" />
  </g>

  
  <g transform="translate(1380,750)">
    
    <circle r="62" fill="#ddd0b0" stroke="#6a5030" stroke-width="2" opacity="0.9" />
    <circle r="56" fill="none" stroke="#6a5030" stroke-width="0.8" opacity="0.6" />
    
    <polygon points="0,-56 -8,-20 0,-30 8,-20" fill="#3a2e1e" />
    <polygon points="0,56 -8,20 0,30 8,20" fill="#8b8070" />
    <polygon points="-56,0 -20,-8 -30,0 -20,8" fill="#8b8070" />
    <polygon points="56,0 20,-8 30,0 20,8" fill="#8b8070" />
    
    <polygon points="0,-56 39.6,-39.6 28,-28" fill="#9e8e6a" opacity="0.7" />
    <polygon points="56,0 39.6,-39.6 28,-28" fill="#9e8e6a" opacity="0.7" />
    <polygon points="56,0 39.6,39.6 28,28" fill="#9e8e6a" opacity="0.5" />
    <polygon points="0,56 39.6,39.6 28,28" fill="#9e8e6a" opacity="0.5" />
    <polygon points="0,-56 -39.6,-39.6 -28,-28" fill="#9e8e6a" opacity="0.7" />
    <polygon points="-56,0 -39.6,-39.6 -28,-28" fill="#9e8e6a" opacity="0.7" />
    <polygon points="-56,0 -39.6,39.6 -28,28" fill="#9e8e6a" opacity="0.5" />
    <polygon points="0,56 -39.6,39.6 -28,28" fill="#9e8e6a" opacity="0.5" />
    
    <circle r="8" fill="#8b1a1a" />
    <circle r="4" fill="#ddd0b0" />
    
    <text x="0" y="-64" text-anchor="middle" font-family="Georgia, serif" font-size="14" font-weight="bold" fill="#3a2e1e">N</text>
    <text x="0" y="78" text-anchor="middle" font-family="Georgia, serif" font-size="11" fill="#6a5030">S</text>
    <text x="-70" y="4" text-anchor="middle" font-family="Georgia, serif" font-size="11" fill="#6a5030">W</text>
    <text x="70" y="4" text-anchor="middle" font-family="Georgia, serif" font-size="11" fill="#6a5030">E</text>
  </g>

  
  <rect x="60" y="60" width="640" height="904" rx="4" fill="url(#panelGrad)" opacity="0.88" />

  
  <rect x="60" y="60" width="8" height="904" rx="2" fill="url(#redAccent)" />

  
  <line x1="100" y1="120" x2="660" y2="120" stroke="#c0392b" stroke-width="1.5" opacity="0.7" />
  <line x1="100" y1="126" x2="660" y2="126" stroke="#8b8070" stroke-width="0.5" opacity="0.4" />

  
  <text x="100" y="110" font-family="Georgia, serif" font-size="13" letter-spacing="4" fill="#c0a060" opacity="0.9" font-style="italic">PEOPLE  ·  CHINESE HISTORY</text>

  
  <text x="100" y="230" font-family="Georgia, serif" font-size="96" font-weight="bold" fill="#f0e8d0" letter-spacing="2">Zhou</text>
  <text x="100" y="340" font-family="Georgia, serif" font-size="96" font-weight="bold" fill="#f0e8d0" letter-spacing="2">Enlai</text>

  
  <text x="540" y="330" font-family="serif" font-size="72" fill="#c0a060" opacity="0.35" text-anchor="middle">周恩来</text>

  
  <line x1="100" y1="370" x2="430" y2="370" stroke="#c0392b" stroke-width="1.5" opacity="0.8" />

  
  <text x="100" y="410" font-family="Georgia, serif" font-size="18" fill="#c8b88a" letter-spacing="1" font-style="italic">Premier of the People's Republic of China</text>
  <text x="100" y="438" font-family="Georgia, serif" font-size="17" fill="#9e9070" letter-spacing="1" font-style="italic">1949 – 1976</text>

  
  <line x1="100" y1="462" x2="620" y2="462" stroke="#6a5030" stroke-width="0.8" opacity="0.5" />

  
  <text x="100" y="490" font-family="Georgia, serif" font-size="14" fill="#9e9070" letter-spacing="1">BORN</text>
  <text x="160" y="490" font-family="Georgia, serif" font-size="14" fill="#c8b88a">March 5, 1898 · Huaian, Jiangsu</text>
  <text x="100" y="514" font-family="Georgia, serif" font-size="14" fill="#9e9070" letter-spacing="1">DIED</text>
  <text x="160" y="514" font-family="Georgia, serif" font-size="14" fill="#c8b88a">January 8, 1976 · Beijing</text>

  
  <line x1="100" y1="535" x2="620" y2="535" stroke="#6a5030" stroke-width="0.8" opacity="0.5" />

  
  <text x="100" y="572" font-family="Georgia, serif" font-size="16" fill="#b0a080" font-style="italic" opacity="0.9">
    <tspan x="100" dy="0">"A founding leader of the Chinese Communist</tspan>
    <tspan x="100" dy="24">Party, Zhou became known for his diplomatic</tspan>
    <tspan x="100" dy="24">skill and organizational acumen — architect</tspan>
    <tspan x="100" dy="24">of China's foreign policy and the rapprochement</tspan>
    <tspan x="100" dy="24">with the United States in 1971."</tspan>
  </text>

  
  <line x1="100" y1="700" x2="620" y2="700" stroke="#6a5030" stroke-width="0.8" opacity="0.5" />
  <text x="100" y="726" font-family="Georgia, serif" font-size="13" fill="#9e9070" letter-spacing="2">ROLES</text>
  <text x="100" y="750" font-family="Georgia, serif" font-size="14" fill="#c8b88a">· Premier of the PRC (1949–1976)</text>
  <text x="100" y="772" font-family="Georgia, serif" font-size="14" fill="#c8b88a">· Foreign Minister (1949–1958)</text>
  <text x="100" y="794" font-family="Georgia, serif" font-size="14" fill="#c8b88a">· CCP Politburo Standing Committee</text>
  <text x="100" y="816" font-family="Georgia, serif" font-size="14" fill="#c8b88a">· Lead diplomat, US–China rapprochement</text>

  
  <line x1="100" y1="858" x2="620" y2="858" stroke="#c0392b" stroke-width="1.5" opacity="0.6" />
  <line x1="100" y1="863" x2="620" y2="863" stroke="#8b8070" stroke-width="0.5" opacity="0.3" />

  
  <g transform="translate(100,885)">
    <rect x="0" y="0" width="40" height="8" fill="#c8b88a" opacity="0.8" />
    <rect x="40" y="0" width="40" height="8" fill="#3a2e1e" opacity="0.8" />
    <rect x="80" y="0" width="40" height="8" fill="#c8b88a" opacity="0.8" />
    <rect x="120" y="0" width="40" height="8" fill="#3a2e1e" opacity="0.8" />
    <text x="0" y="22" font-family="Georgia, serif" font-size="11" fill="#9e9070">0</text>
    <text x="155" y="22" font-family="Georgia, serif" font-size="11" fill="#9e9070">2000 km</text>
    <text x="0" y="-4" font-family="Georgia, serif" font-size="10" fill="#9e9070" opacity="0.7" letter-spacing="1">SCALE</text>
  </g>

  
  <text x="940" y="248" font-family="Georgia, serif" font-size="18" font-weight="bold" fill="#f0e8d0" text-anchor="middle" letter-spacing="3" opacity="0.95">CHINA</text>

  
  <text x="988" y="188" font-family="Georgia, serif" font-size="12" fill="#f0e8d0" opacity="0.9" letter-spacing="1">BEIJING ★</text>

  
  <text x="920" y="148" font-family="Georgia, serif" font-size="11" fill="#5a4020" opacity="0.7" letter-spacing="2" font-style="italic">RUSSIA</text>
  <text x="665" y="210" font-family="Georgia, serif" font-size="10" fill="#5a4020" opacity="0.65" letter-spacing="1" font-style="italic">EUROPE</text>
  <text x="640" y="380" font-family="Georgia, serif" font-size="10" fill="#5a4020" opacity="0.65" font-style="italic">AFRICA</text>
  <text x="1040" y="590" font-family="Georgia, serif" font-size="10" fill="#5a4020" opacity="0.65" font-style="italic">AUSTRALIA</text>
  <text x="240" y="240" font-family="Georgia, serif" font-size="10" fill="#5a4020" opacity="0.65" font-style="italic">NORTH</text>
  <text x="235" y="253" font-family="Georgia, serif" font-size="10" fill="#5a4020" opacity="0.65" font-style="italic">AMERICA</text>

  
  <circle cx="990" cy="260" r="5" fill="#c0a060" stroke="#fff" stroke-width="1.5" opacity="0.85" />
  <text x="998" y="258" font-family="Georgia, serif" font-size="10" fill="#f0e8d0" opacity="0.8" font-style="italic">Huaian</text>

  
  <g transform="translate(1200,120)" opacity="0.18">
    <circle r="55" fill="none" stroke="#8b1a1a" stroke-width="3" />
    <circle r="48" fill="none" stroke="#8b1a1a" stroke-width="1" />
    <text x="0" y="8" text-anchor="middle" font-family="serif" font-size="28" fill="#8b1a1a" font-weight="bold">周</text>
  </g>

  
  <rect x="18" y="18" width="1500" height="988" fill="none" stroke="#c0a060" stroke-width="1" opacity="0.25" rx="2" />

</svg>